<?xml version="1.0" encoding="utf-8"?>
<!-- Generator: Adobe Illustrator 25.2.3, SVG Export Plug-In . SVG Version: 6.00 Build 0)  -->
<svg version="1.1" xmlns="http://www.w3.org/2000/svg" xmlns:xlink="http://www.w3.org/1999/xlink" x="0px" y="0px"
	 viewBox="0 0 720 720" style="enable-background:new 0 0 720 720;" xml:space="preserve">
<style type="text/css">
	.st0{fill:#2A2B2A;}
	.st1{fill:#144A8D;}
	.st2{fill:#F8F9FC;}
</style>
<g id="Layer_2">
	<g>
		<path class="st0" d="M489.13,226.06l-15.83-46.98l-82.21-1.53l-108.77,37.28v215.74l71.23,45.19l173.49,34.34l66.38-95.49V228.7
			L489.13,226.06z M403.81,207.72l44.81,2.17c0,0,10.54,1.89,18.1,6.82c-0.68,1.26-0.97,1.8-0.97,1.8s-12.53-6.26-18.02-6.84
			c-4.09-0.22-43.91-2.55-43.91-2.55V207.72z M430.11,244.74c0,0,9.42,1.18,12.94,5.28c3.52,4.09,8.94,4.09,8.94,4.09
			s-45.57,77.14-45.53,77.61c0.02,0.03,0.02,0.04,0,0.01c0,0,0-0.01,0-0.01c-0.11-0.2-0.93-1.57-0.93-1.57s0.67-3.11-2.13-8.89
			c0-11.74-0.51-76.51-0.51-76.51H430.11z M318.53,241.43l44.17,2.55v99.89l-44.17,34.15V241.43z M362.2,410.33
			c1.35-1.4-5.71-6.39-5.71-6.39l-7.7-4.02c0,0,6-6,11.49-11.11c3.77-4.47,22.42-16.41,22.42-16.41S372.98,401.51,362.2,410.33z
			 M504.06,467.85l-114.26-19.66L441,406.45l63.06,9.45V467.85z M504.06,386.4l-57.45-6.64v-86.94l57.45,1.79V386.4z M512.55,260.34
			l-39.89-2.23l2.55-1.53l41.04,1.53L512.55,260.34z M545.47,433.85v-11.96l8.21,1.02L545.47,433.85z M564.57,394.36l-17.19-2.55
			V286.96l17.19-9.36V394.36z"/>
		<path class="st1" d="M507.81,178.28c0,0-3.06-10.04-3.23-10.3c-9.62-27.15-30.3-26.64-30.3-26.64s-151.32-13.7-155.06-13.7
			c-19.92,0-28.34,12.85-28.34,12.85L108.79,424.04c-12.21,29.17,11.45,39.85,11.45,39.85s195.49,27.66,196.43,27.91
			c30.13,3.66,42.72-16.77,42.72-16.77S497.6,217.68,504.15,205.17C510.7,192.66,507.81,178.28,507.81,178.28z M479.72,192.4
			c-0.09,0.68-136.77,253.53-136.77,253.53s-10.38,16-33.87,14.13c-23.49-1.87-26.21-2.72-26.21-2.72l-146.72-20.6
			c0,0-13.79-2.89-6.81-15.83l173.74-269.23c0,0,4.98-11.11,28.6-9.19c0.26,0.38,138.68,14.77,138.68,14.77
			S490.28,161.77,479.72,192.4z"/>
		<path class="st2" d="M329.64,433.94c0,0-186.68-26.26-187.02-26.3c-0.78-0.1-3.38-2.06-1.86-4.41
			c-3.39,5.25-11.42,17.69-11.42,17.69s-7.57,12.26,6.81,15.83c14.45,2.39,146.69,20.66,146.69,20.66s3.32,1.01,26.25,2.65
			c0.32,0.02,21.28,3.36,33.87-14.13c7.14-13.2,13.53-25.04,13.53-25.04S347,433.94,329.64,433.94z"/>
		<path class="st2" d="M449.77,180.4l-144.68-14.98c0,0-10.25,0.94-17.38,10.09c9.56-14.82,15.38-23.83,15.38-23.83
			s5-11.86,28.6-9.19s138.68,14.77,138.68,14.77s21.19,3.49,9.36,35.15c-4.94,9.31-4.94,9.31-4.94,9.31S472.36,185.13,449.77,180.4z
			"/>
		<path class="st2" d="M238.11,459.3L203,454.74c0,0-6.72-0.12-7.06,5.47s3.02,7.98,3.02,7.98l36.3,5.7c0,0,5.79-0.09,7.53-5.74
			C244.53,462.49,238.11,459.3,238.11,459.3z"/>
		<path class="st1" d="M368,153.15l43.09,4.15c0,0,3.83,2.11,2.46,5.07c-1.37,2.97-4.69,3.38-4.69,3.38l-41.6-4.29
			c0,0-3.45-1.49-3.19-4.47C364.32,154.02,368,153.15,368,153.15z"/>
	</g>
</g>
<g id="Layer_3">
	<g>
		<path class="st0" d="M69.77,561.85H49c0,0-6.13,35.74,22.81,42.04c20.77,0,20.77,0,20.77,0s15.32-1.36,19.23-15.32
			s12.77-45.28-12.94-61.79c-19.91-11.4-21.96-11.06-21.96-11.06s-4.85-2.64-4.94-8.85c-0.09-6.21,3.15-10.04,8-10.21
			c4.85-0.17,8.77,4.26,9.96,10.13c1.19,5.87,0.94,6.3,0.94,6.3h21.87c0,0,0.6-18.98-6.38-28s-11.42-12.6-23.88-12.77
			c-12.46-0.17-26.08,2.89-31.01,24.94s0.77,47.06,28.51,57.62c7.15,3.15,13.36,7.57,12.6,16.17c-0.77,8.6-3.15,12.34-8.77,12.85
			s-11.32-4.43-12.6-11.83c-1.28-7.4-1.36-9.87-1.36-9.87L69.77,561.85z"/>
		<polygon class="st0" points="143.13,603.89 121,603.89 121,482.53 152.15,482.53 162.19,513.85 174.11,482.53 197.09,482.53 
			205.77,483.72 205.77,603.89 182.96,603.89 182.96,532.57 172.23,561 154.7,561 141.94,527.98 		"/>
		<path class="st0" d="M235.89,603.89h-27.91l28.94-115.4l37.11,4.94l15.66,63.15v-61.36l25.53,3.7c0,0,27.32,3.19,43.4-12.64
			c3.45,0.38,13.91,5.49,14.17,33.19c0.26,27.7-17.49,34.85-17.49,34.85l20.94,49.57H345.6l-21.83-53.4l18.89-23.62
			c0,0,6.13-16.21-7.28-19.4c-16.09,0-16.6,0-16.6,0v96.43h-46.21l-18-87.11L235.89,603.89z"/>
		<polygon class="st0" points="424.87,603.89 401.64,603.89 401.64,513.21 377.89,513.21 377.89,490.23 448.36,504.15 
			448.36,512.19 424.87,512.19 		"/>
		<polygon class="st1" points="464.66,603.89 440.32,603.89 458.87,506.02 499.72,514.19 516.06,603.89 491.21,603.89 
			478.19,528.15 		"/>
		<path class="st1" d="M547.17,603.89h-26.55v-85.96l9.7,2.43l24.13-36.51h27.06c0,0,17.36,4.85,17.36,34.34
			c0,29.49-14.81,37.28-14.81,37.28l21.19,48.43h-32.68l-20.55-53.91l19.28-20.94c0,0,4.09-16.09-4.09-16.09s-19.66,0-19.66,0
			L547.17,603.89z"/>
		<polygon class="st1" points="654.53,603.89 627.85,603.89 627.85,511.81 605.26,511.81 605.26,483.85 678.79,483.85 
			678.79,511.94 655.17,511.94 		"/>
	</g>
</g>
</svg>
